<mxfile host="app.diagrams.net" version="27.1.6" pages="1">
  <diagram name="Adaptive Chunking">
    <mxGraphModel grid="1" page="1" gridSize="10" guides="1" tooltips="1" connect="1" arrows="1" fold="1" pageScale="1" pageWidth="827" pageHeight="1169" math="0" shadow="0">
      <root>
        <mxCell id="0"/>
        <mxCell id="1" parent="0"/>
        <mxCell id="2" value="輸入文件" style="rounded=1;whiteSpace=wrap;html=1;fillColor=#dae8fc;fontSize=18;fontStyle=1;" vertex="1" parent="1">
          <mxGeometry x="320" y="40" width="180" height="50" as="geometry"/>
        </mxCell>
        <mxCell id="3" value="初始Chunk分割（根據SLM window）" style="rounded=1;whiteSpace=wrap;html=1;fillColor=#e1d5e7;fontSize=14;" vertex="1" parent="1">
          <mxGeometry x="300" y="110" width="220" height="60" as="geometry"/>
        </mxCell>
        <mxCell id="4" value="SLM批次推理，每chunk計算信心/一致性" style="rounded=1;whiteSpace=wrap;html=1;fillColor=#fff2cc;" vertex="1" parent="1">
          <mxGeometry x="260" y="190" width="300" height="60" as="geometry"/>
        </mxCell>
        <mxCell id="5" value="信心/一致性分析（Uncertainty Est.）" style="rounded=1;whiteSpace=wrap;html=1;fillColor=#f8cecc;" vertex="1" parent="1">
          <mxGeometry x="300" y="270" width="220" height="50" as="geometry"/>
        </mxCell>
        <mxCell id="6" value="高信心/一致\n→進入完成隊列\n可合併相鄰chunk（可選）" style="rounded=1;whiteSpace=wrap;html=1;fillColor=#d5e8d4;" vertex="1" parent="1">
          <mxGeometry x="60" y="350" width="210" height="70" as="geometry"/>
        </mxCell>
        <mxCell id="7" value="低信心/矛盾\n→細分chunk（縮小粒度）" style="rounded=1;whiteSpace=wrap;html=1;fillColor=#f8cecc;" vertex="1" parent="1">
          <mxGeometry x="420" y="350" width="210" height="70" as="geometry"/>
        </mxCell>
        <mxCell id="8" value="完成chunk，進入聚合" style="rounded=1;whiteSpace=wrap;html=1;fillColor=#d5e8d4;" vertex="1" parent="1">
          <mxGeometry x="60" y="450" width="210" height="50" as="geometry"/>
        </mxCell>
        <mxCell id="9" value="細分chunk後回到推理（可多次迴圈）" style="rounded=1;whiteSpace=wrap;html=1;fillColor=#f8cecc;" vertex="1" parent="1">
          <mxGeometry x="420" y="450" width="210" height="50" as="geometry"/>
        </mxCell>
        <mxCell id="10" value="聚合所有chunk結果" style="rounded=1;whiteSpace=wrap;html=1;fillColor=#fff2cc;" vertex="1" parent="1">
          <mxGeometry x="260" y="520" width="300" height="60" as="geometry"/>
        </mxCell>
        <mxCell id="11" value="輸出最終結果" style="rounded=1;whiteSpace=wrap;html=1;fillColor=#dae8fc;fontSize=18;fontStyle=1;" vertex="1" parent="1">
          <mxGeometry x="320" y="610" width="180" height="50" as="geometry"/>
        </mxCell>
        <mxCell id="12" style="edgeStyle=orthogonalEdgeStyle;endArrow=block;html=1;endFill=1;" edge="1" parent="1" source="2" target="3">
          <mxGeometry relative="1"/>
        </mxCell>
        <mxCell id="13" style="edgeStyle=orthogonalEdgeStyle;endArrow=block;html=1;endFill=1;" edge="1" parent="1" source="3" target="4">
          <mxGeometry relative="1"/>
        </mxCell>
        <mxCell id="14" style="edgeStyle=orthogonalEdgeStyle;endArrow=block;html=1;endFill=1;" edge="1" parent="1" source="4" target="5">
          <mxGeometry relative="1"/>
        </mxCell>
        <mxCell id="15" style="edgeStyle=orthogonalEdgeStyle;endArrow=block;html=1;endFill=1;" edge="1" parent="1" source="5" target="6">
          <mxGeometry relative="1"/>
        </mxCell>
        <mxCell id="16" style="edgeStyle=orthogonalEdgeStyle;endArrow=block;html=1;endFill=1;" edge="1" parent="1" source="5" target="7">
          <mxGeometry relative="1"/>
        </mxCell>
        <mxCell id="17" style="edgeStyle=orthogonalEdgeStyle;endArrow=block;html=1;endFill=1;" edge="1" parent="1" source="6" target="8">
          <mxGeometry relative="1"/>
        </mxCell>
        <mxCell id="18" style="edgeStyle=orthogonalEdgeStyle;endArrow=block;html=1;endFill=1;" edge="1" parent="1" source="7" target="9">
          <mxGeometry relative="1"/>
        </mxCell>
        <mxCell id="19" style="edgeStyle=orthogonalEdgeStyle;endArrow=block;html=1;endFill=1;" edge="1" parent="1" source="9" target="4">
          <mxGeometry relative="1"/>
        </mxCell>
        <mxCell id="20" style="edgeStyle=orthogonalEdgeStyle;endArrow=block;html=1;endFill=1;" edge="1" parent="1" source="8" target="10">
          <mxGeometry relative="1"/>
        </mxCell>
        <mxCell id="21" style="edgeStyle=orthogonalEdgeStyle;endArrow=block;html=1;endFill=1;" edge="1" parent="1" source="10" target="11">
          <mxGeometry relative="1"/>
        </mxCell>
      </root>
    </mxGraphModel>
  </diagram>
</mxfile>